<svg width="24" height="24" viewBox="0 0 24 24" fill="none" xmlns="http://www.w3.org/2000/svg">
<path fill-rule="evenodd" clip-rule="evenodd" d="M12.3879 5.80692C12.3879 5.70428 12.3471 5.60585 12.2746 5.53327C12.202 5.46069 12.1036 5.41992 12.0009 5.41992C11.8983 5.41992 11.7998 5.46069 11.7273 5.53327C11.6547 5.60585 11.6139 5.70428 11.6139 5.80692V11.6129H5.80692C5.70428 11.6129 5.60585 11.6537 5.53327 11.7263C5.46069 11.7988 5.41992 11.8973 5.41992 11.9999C5.41992 12.1026 5.46069 12.201 5.53327 12.2736C5.60585 12.3461 5.70428 12.3869 5.80692 12.3869H11.6139V18.1939C11.6139 18.2966 11.6547 18.395 11.7273 18.4676C11.7998 18.5401 11.8983 18.5809 12.0009 18.5809C12.1036 18.5809 12.202 18.5401 12.2746 18.4676C12.3471 18.395 12.3879 18.2966 12.3879 18.1939V12.3869H18.1949C18.2457 12.3869 18.2961 12.3769 18.343 12.3575C18.39 12.338 18.4326 12.3095 18.4686 12.2736C18.5045 12.2376 18.533 12.195 18.5525 12.148C18.5719 12.1011 18.5819 12.0507 18.5819 11.9999C18.5819 11.9491 18.5719 11.8988 18.5525 11.8518C18.533 11.8049 18.5045 11.7622 18.4686 11.7263C18.4326 11.6903 18.39 11.6618 18.343 11.6424C18.2961 11.6229 18.2457 11.6129 18.1949 11.6129H12.3879V5.80692Z" fill="#40AD87"/>
<path fill-rule="evenodd" clip-rule="evenodd" d="M12 24C18.627 24 24 18.627 24 12C24 5.373 18.627 0 12 0C5.373 0 0 5.373 0 12C0 18.627 5.373 24 12 24ZM12 23.226C18.2 23.226 23.226 18.2 23.226 12C23.226 5.8 18.2 0.774 12 0.774C5.8 0.774 0.774 5.8 0.774 12C0.774 18.2 5.8 23.226 12 23.226Z" fill="#40AD87"/>
</svg>
